<?xml version="1.0" encoding="UTF-8" standalone="no"?>
<!DOCTYPE svg PUBLIC "-//W3C//DTD SVG 1.1//EN" "http://www.w3.org/Graphics/SVG/1.1/DTD/svg11.dtd">
<svg width="100%" height="100%" viewBox="0 0 371 302" version="1.1" xmlns="http://www.w3.org/2000/svg" xmlns:xlink="http://www.w3.org/1999/xlink" xml:space="preserve" xmlns:serif="http://www.serif.com/" style="fill-rule:evenodd;clip-rule:evenodd;stroke-linejoin:round;stroke-miterlimit:2;">
    <g transform="matrix(1,0,0,1,-18527,-8007)">
        <g transform="matrix(3.92998,0,0,1.30939,-58417,-1502.77)">
            <g transform="matrix(0.25,0,0,1,14604.6,-91.6456)">
                <g transform="matrix(1.1132,0,0,0.835283,-1031.4,1281.73)">
                    <path d="M18800.2,7418.79L18914.7,7418.79L18914.7,7387.01L18837.9,7387.01L18837.9,7303.2L18800.2,7303.2L18800.2,7418.79Z" style="fill:rgb(223,59,181);fill-rule:nonzero;"/>
                </g>
                <g transform="matrix(1.1132,0,0,0.835283,-1045.51,1281.73)">
                    <path d="M18935,7418.79L18976.6,7418.79L18986.6,7397.28L19052.4,7397.28L19062.4,7418.79L19103.9,7418.79L19043.7,7303.2L18995.4,7303.2L18935,7418.79ZM18984.8,7289.88L19012.9,7289.88L19012.9,7270.29L18984.8,7270.29L18984.8,7289.88ZM19026.1,7289.88L19054,7289.88L19054,7270.29L19026.1,7270.29L19026.1,7289.88ZM18999.1,7370.15L19019.5,7326.16L19039.9,7370.15L18999.1,7370.15Z" style="fill:rgb(223,59,181);fill-rule:nonzero;"/>
                </g>
                <g transform="matrix(1.1132,0,0,0.835283,-1031.4,1240.7)">
                    <path d="M18800.2,7595.39L18837.9,7595.39L18837.9,7562.64L18890.4,7562.64C18900.7,7562.64 18903.6,7565.69 18903.6,7576.13L18903.6,7595.39L18941.3,7595.39L18941.3,7569.87C18941.3,7555.58 18932.3,7547.23 18917.2,7546.43C18932.5,7541.77 18941.3,7531.18 18941.3,7515.28C18941.3,7492 18925.7,7479.8 18894.1,7479.8L18800.2,7479.8L18800.2,7595.39ZM18837.9,7533.1L18837.9,7509.34L18885.4,7509.34C18895.9,7509.34 18903.3,7511.11 18903.3,7521.22C18903.3,7531.18 18895.9,7533.1 18885.4,7533.1L18837.9,7533.1Z" style="fill:rgb(223,59,181);fill-rule:nonzero;"/>
                </g>
                <g transform="matrix(1.1132,0,0,0.835283,-1031.4,1240.7)">
                    <path d="M18952.4,7595.39L18990.1,7595.39L18990.1,7515.6L19027.8,7595.39L19062.8,7595.39L19100.6,7515.6L19100.6,7595.39L19138.3,7595.39L19138.3,7479.8L19079.5,7479.8L19045.5,7551.89L19011.3,7479.8L18952.4,7479.8L18952.4,7595.39Z" style="fill:rgb(223,59,181);fill-rule:nonzero;"/>
                </g>
                <g transform="matrix(1.1132,0,0,0.835283,-1082.87,1134.22)">
                    <rect x="19145.2" y="7566.17" width="39.334" height="29.219" style="fill:rgb(223,59,181);fill-rule:nonzero;"/>
                </g>
            </g>
        </g>
    </g>
</svg>
