<?xml version="1.0" encoding="UTF-8" standalone="no"?>
<!-- Created with Inkscape (http://www.inkscape.org/) -->

<svg
   version="1.1"
   id="svg105"
   width="670.2583"
   height="809.17963"
   viewBox="0 0 670.2583 809.17963"
   sodipodi:docname="Lärm.svg"
   inkscape:version="1.2.2 (b0a8486, 2022-12-01)"
   xmlns:inkscape="http://www.inkscape.org/namespaces/inkscape"
   xmlns:sodipodi="http://sodipodi.sourceforge.net/DTD/sodipodi-0.dtd"
   xmlns="http://www.w3.org/2000/svg"
   xmlns:svg="http://www.w3.org/2000/svg">
  <defs
     id="defs109" />
  <sodipodi:namedview
     id="namedview107"
     pagecolor="#505050"
     bordercolor="#eeeeee"
     borderopacity="1"
     inkscape:showpageshadow="0"
     inkscape:pageopacity="0"
     inkscape:pagecheckerboard="0"
     inkscape:deskcolor="#505050"
     showgrid="false"
     inkscape:zoom="0.31071526"
     inkscape:cx="848.04332"
     inkscape:cy="1626.8914"
     inkscape:window-width="1440"
     inkscape:window-height="847"
     inkscape:window-x="0"
     inkscape:window-y="25"
     inkscape:window-maximized="0"
     inkscape:current-layer="g111" />
  <g
     inkscape:groupmode="layer"
     inkscape:label="Image"
     id="g111"
     transform="translate(-401.58249,-912.00494)">
    <path
       style="fill:#000000;stroke-width:1.33333"
       d="m 837.15225,1717.6323 c -5.9071,-3.0567 -9.64293,-6.8287 -21.45892,-21.6667 -19.35682,-24.3073 -19.07232,-23.9823 -35.59892,-40.6715 -14.52377,-14.6665 -17.89024,-20.1026 -15.17289,-24.5005 0.72281,-1.1697 6.0178,-4.4708 11.76665,-7.3356 7.2591,-3.6173 13.1976,-7.9429 19.43784,-14.1584 10.10171,-10.0617 11.87943,-14.2664 11.82415,-27.9663 -0.0595,-14.7454 -2.39588,-16 -29.79688,-16 -19.87919,0 -33.31617,1.5668 -34.86007,4.065 -0.40193,0.6502 0.2543,8.2517 1.45827,16.8921 2.72959,19.5888 2.0538,70.2456 -1.08115,81.0429 -2.1718,7.4802 -8.24129,20.1223 -11.36232,23.6667 -2.90856,3.3031 -6.54644,2.8931 -9.11517,-1.0273 -2.10968,-3.2198 -2.03211,-3.6807 1.851,-11 7.99869,-15.0767 8.57224,-19.3023 7.96745,-58.7002 -0.41337,-26.928 -1.1613,-39.1364 -3.06884,-50.0921 l -2.52225,-14.4864 3.10428,-2.5136 c 3.91233,-3.168 4.8432,-3.146 8.18268,0.1935 2.33679,2.3368 3.3888,2.5236 7.6896,1.3654 2.74035,-0.7378 16.43807,-1.4112 30.4394,-1.4961 23.26539,-0.1413 25.92132,0.083 30.85103,2.5972 10.66745,5.4421 14.4498,14.3553 13.18509,31.0708 -0.48803,6.4501 -1.88496,12.6056 -3.77165,16.6193 -3.92196,8.3436 -16.91096,21.2778 -28.09364,27.975 l -8.91754,5.3406 7.42482,7.2436 c 9.52398,9.2916 26.30085,28.1215 33.1524,37.2095 13.58402,18.018 17.92052,22.4696 25.2806,25.9515 6.34128,2.9998 7.38606,4.0166 7.38606,7.1884 0,7.7697 -5.31128,8.818 -16.18108,3.1932 z m 142.52678,-13.299 c -5.71442,-6.4488 -9.17899,-29.0577 -11.69726,-76.3333 -1.52182,-28.5693 -4.70073,-60.7736 -6.47153,-65.5605 -0.95373,-2.5782 -1.27229,-2.3963 -4.05024,2.312 -6.37116,10.7982 -12.53269,31.3668 -17.94829,59.9152 -3.16476,16.683 -3.50195,19.8596 -4.7051,44.3236 -1.19253,24.2482 -1.97014,27.0097 -7.6058,27.0097 -3.44318,0 -7.63658,-5.1256 -6.66408,-8.1455 0.32847,-1.02 0.97654,-10.5545 1.44012,-21.1878 1.89624,-43.493 12.09604,-87.5807 25.49346,-110.1934 5.01509,-8.4645 8.63014,-11.14 15.05245,-11.14 10.73707,0 14.46493,16.4016 18.12199,79.7322 2.15512,37.3209 4.3452,58.8865 6.18137,60.8678 0.71877,0.7756 1.17388,0.5142 1.17388,-0.6745 0,-2.2751 18.3151,-38.9188 26.6497,-53.3192 13.3086,-22.994 25.4092,-37.5663 32.7178,-39.4007 4.7422,-1.1902 9.5991,2.4808 11.2133,8.4754 2.1248,7.891 4.062,33.8621 4.0745,54.6254 0.012,20.5406 1.8875,28.8399 6.8739,30.4224 2.1402,0.6794 2.5399,1.8347 2.2086,6.3836 -0.3914,5.375 -0.5481,5.5475 -4.853,5.3452 -5.5413,-0.2605 -10.3712,-4.5553 -14.0096,-12.4576 -2.4695,-5.3636 -2.8558,-9.5538 -3.6417,-39.5074 -0.4836,-18.4291 -1.3343,-34.2436 -1.8905,-35.1436 -0.7184,-1.1624 -1.9694,-0.5328 -4.32,2.1741 -6.3745,7.3408 -15.1499,21.8593 -14.2055,23.5024 0.5188,0.9027 0.4397,1.1837 -0.1759,0.6245 -1.8139,-1.6474 -19.5206,30.8159 -29.40847,53.9175 -2.61,6.0979 -5.69816,12.1397 -6.8626,13.4264 -2.73341,3.0204 -10.0174,3.0239 -12.6915,0 z M 670.93333,1690.4 c -0.88,-0.88 -1.6,-3.8864 -1.6,-6.6808 0,-7.1428 -4.60377,-26.884 -8.48545,-36.3859 l -3.26813,-8 -24.71348,-0.3625 -24.7135,-0.3624 -2.09952,4.3624 c -5.48701,11.4012 -14.99618,23.1524 -23.22093,28.6959 -9.37411,6.3181 -12.01592,6.8488 -15.41252,3.0956 -3.36805,-3.7218 -1.65751,-7.2374 5.87244,-12.0692 10.42851,-6.692 22.2874,-22.874 20.87808,-28.4892 -0.86699,-3.4543 2.31128,-8.8706 5.20529,-8.8706 1.0401,0 3.18299,-2.85 4.76202,-6.3333 1.57901,-3.4833 5.42152,-11.7333 8.5389,-18.3333 3.11739,-6.6 6.06166,-13.2894 6.54282,-14.8654 0.48116,-1.5758 2.43545,-4.4258 4.34289,-6.3333 4.92305,-4.9229 15.06451,-4.9624 19.94939,-0.077 4.0171,4.017 11.619,19.9737 23.50044,49.3284 9.98913,24.6793 14.32126,40.3894 14.32126,51.935 0,8.6479 -1.42685,11.3462 -6,11.3462 -1.54,0 -3.52,-0.72 -4.4,-1.6 z M 649.43689,1619 c -5.38497,-13.5112 -13.39425,-29.3651 -15.1816,-30.0509 -1.34565,-0.5163 -4.0415,4.0412 -9.56234,16.166 -4.2286,9.2866 -7.97859,17.6349 -8.33331,18.5516 -0.49656,1.2832 3.52461,1.6666 17.47825,1.6666 h 18.1232 z m -246.90161,52.5775 c -2.10595,-4.6222 -0.62108,-9.4732 3.47017,-11.3374 1.8715,-0.8526 3.79171,-2.6056 4.26715,-3.8952 0.47543,-1.2897 2.20361,-4.1449 3.8404,-6.3449 1.63677,-2.2 5.19412,-8.8 7.9052,-14.6667 13.44135,-29.0865 13.13981,-27.7193 13.46597,-61.0572 0.29276,-29.923 0.82496,-32.9428 5.80578,-32.9428 5.15546,0 6.67393,4.2003 7.50874,20.7704 1.7008,33.7591 -2.46224,53.8531 -17.04781,82.2852 l -7.32439,14.2778 h 47.02486 c 40.97208,0 47.29453,0.2697 49.12008,2.0952 2.52454,2.5245 2.68744,5.9329 0.42857,8.9672 -1.50152,2.0168 -6.95152,2.2848 -55,2.7052 -29.33333,0.2566 -55.26631,0.9294 -57.62883,1.4953 -3.7863,0.9067 -4.4781,0.6279 -5.83589,-2.3521 z m 206.52737,-97.871 c -3.09852,-0.7432 -3.5664,-2.9518 -3.89196,-18.3732 -0.15481,-7.3333 -0.81452,-14.5442 -1.46602,-16.0244 -0.6515,-1.4801 -3.40158,-4.1748 -6.11127,-5.9881 -6.35473,-4.2527 -6.95785,-5.1639 -6.66213,-10.0655 0.21582,-3.5772 0.7683,-4.1132 4.49836,-4.3644 3.1996,-0.2154 5.90712,1.0216 10.93658,4.9972 3.67635,2.906 7.1441,4.87 7.70612,4.3644 0.56203,-0.5056 0.63531,-0.2421 0.16284,0.5855 -0.47246,0.8276 0.0501,3.3273 1.1615,5.5551 1.54725,3.1014 1.93264,7.8648 1.64526,20.3354 -0.33718,14.6327 -0.64588,16.4495 -3.04193,17.9039 -1.46667,0.8903 -3.68848,1.3736 -4.93735,1.0741 z m 83.29528,-1.0725 c -2.27486,-1.5935 -2.75886,-4.1631 -3.68549,-19.5675 -1.38988,-23.1053 -1.34276,-23.9454 1.45753,-25.993 8.07992,-5.9083 10.86243,1.7133 11.09086,30.3792 0.10866,13.6333 0.003,14.169 -3.0658,15.5674 -2.42231,1.1036 -3.80123,1.0118 -5.7971,-0.3861 z m 2.30874,-55.3007 C 692.58233,1515.2491 692,1512.8889 692,1506.5257 c 0,-4.4774 -0.94021,-11.7692 -2.08937,-16.204 -1.50038,-5.7901 -1.88628,-11.4824 -1.36891,-20.1924 0.39625,-6.6712 1.29965,-41.1561 2.00755,-76.6332 0.7079,-35.4772 1.9239,-70.8314 2.70224,-78.5649 1.9319,-19.1954 1.90282,-131.8058 -0.0344,-133.003 -0.79722,-0.4927 -1.15339,-2.0281 -0.7915,-3.412 0.43191,-1.6516 -0.0388,-2.5162 -1.37006,-2.5162 -3.47684,0 -14.6682,-6.7752 -16.17559,-9.7926 -0.78967,-1.5808 -1.61072,-4.3537 -1.82456,-6.1621 -0.31537,-2.6672 -1.77369,-3.7731 -7.72213,-5.8564 -4.03334,-1.4125 -9.19796,-3.8329 -11.47695,-5.3786 -7.28345,-4.9398 -14.82048,-15.533 -17.17816,-24.1436 -0.60239,-2.2 -1.25997,-4.6 -1.46132,-5.3334 -0.20135,-0.7333 -1.35404,-4.9333 -2.56153,-9.3333 -1.5605,-5.6863 -2.14867,-12.9104 -2.03372,-24.9786 0.0948,-9.9593 -0.43514,-18.0939 -1.28192,-19.6761 -0.79399,-1.4836 -5.47062,-4.7254 -10.39251,-7.204 -14.75513,-7.4306 -18.44499,-12.2921 -23.83073,-31.3978 -8.75308,-31.05102 -8.40327,-28.83217 -8.42015,-53.41017 -0.0151,-21.8756 0.17097,-23.63464 2.97715,-28.15613 4.21513,-6.79169 8.50081,-11.47837 17.68329,-19.33779 15.27525,-13.0743 16.92627,-13.84002 29.82928,-13.83442 9.10292,0.004 12.38057,0.5537 15.82612,2.65448 5.04397,3.07534 9.29124,9.4593 10.48049,15.75294 l 0.83376,4.41242 2.83679,-2.59528 c 9.50288,-8.6939 48.86643,-18.90835 52.18355,-13.54114 0.46061,0.7453 1.48873,0.95259 2.2847,0.46066 0.79596,-0.49194 1.08942,-0.31551 0.65212,0.39205 -0.43729,0.70757 -0.14536,3.84619 0.64875,6.97472 l 1.44383,5.68824 6.8119,-6.70795 c 8.63555,-8.50373 16.05868,-11.73124 29.47859,-12.81698 12.84207,-1.039 18.72556,0.51214 32.53596,8.57785 12.87971,7.52215 13.68936,9.50735 14.44173,35.40967 0.61826,21.2852 -0.3929,29.85353 -5.0352,42.66666 -1.59416,4.39997 -4.0287,13.58477 -5.4101,20.41067 -2.64274,13.0585 -8.56915,31.1806 -13.10344,40.0686 -1.48102,2.903 -5.10426,8.0645 -8.05166,11.4699 -2.94738,3.4055 -5.9425,7.2823 -6.65581,8.6151 -1.60087,2.9912 -3.85692,14.8505 -5.34607,28.1024 -1.38844,12.3557 -1.46932,12.5719 -10.32384,27.5963 -8.97744,15.233 -15.73834,22.375 -23.30958,24.6234 -9.13263,2.712 -19.93363,10.9667 -21.97766,16.7965 -1.31488,3.7501 -1.73509,16.3535 -1.69752,50.9139 l 0.0499,45.93 2.94164,-4.8288 c 1.61791,-2.6559 4.55735,-6.091 6.53211,-7.6336 4.9648,-3.8783 25.03896,-11.9268 37.0762,-14.8654 10.02988,-2.4485 28.71948,-3.3465 31.46706,-1.5119 4.87251,3.2535 5.66495,12.0417 2.6131,28.9796 -1.05706,5.8667 -2.60716,14.9895 -3.44468,20.273 -1.37187,8.6544 -2.2714,10.5526 -9.07719,19.1542 -12.56035,15.8747 -30.76512,26.4629 -50.10852,29.144 -5.80263,0.8043 -11.34944,2.1256 -12.32624,2.9363 -0.9768,0.8106 -2.92601,1.1732 -4.33159,0.8056 -2.20478,-0.5766 -2.66789,0.2712 -3.37374,6.176 -0.44999,3.7644 -1.32863,30.8442 -1.95252,60.1776 -0.62391,29.3333 -1.53643,55.8858 -2.02783,59.0056 -0.4914,3.1197 -0.25039,7.9197 0.53559,10.6666 2.48789,8.6951 4.27214,33.7586 2.55088,35.8326 -2.17035,2.6152 -6.09567,2.2572 -9.19099,-0.8382 z m 19.4604,-186.0272 c 2.1301,-0.4514 7.47293,-1.2919 11.87293,-1.8678 4.4,-0.5758 9.83931,-1.885 12.08735,-2.9093 9.46124,-4.3109 21.47464,-13.7765 26.70145,-21.0386 5.05227,-7.0196 5.66843,-8.8576 8.3368,-24.8685 3.98991,-23.9402 3.94619,-24.6219 -1.57899,-24.6219 -6.0167,0 -21.83172,4.192 -35.18334,9.3258 -13.1648,5.062 -17.23083,9.1887 -18.50307,18.7793 -0.93724,7.0653 -3.83283,10.0514 -8.35501,8.6161 -1.42935,-0.4536 -2.41939,-0.08 -2.45688,0.9261 -0.0345,0.9273 -0.52478,10.6054 -1.0894,21.5069 -1.01232,19.5455 -0.98962,19.8011 1.63432,18.3969 1.46349,-0.7833 4.40372,-1.7935 6.53384,-2.245 z m -3.4604,-174.5896 c 4.76666,-3.1876 10.90701,-6.4962 13.64521,-7.3524 6.19892,-1.9383 11.86689,-8.4485 20.05309,-23.0327 5.33078,-9.497 6.3017,-12.3267 6.3017,-18.3655 0,-8.3562 2.21954,-21.3374 4.78165,-27.9659 2.75912,-7.1381 5.88501,-20.5596 5.88501,-25.2681 0,-4.0909 -0.0883,-4.1546 -2.96334,-2.1408 -3.82395,2.6784 -18.07374,2.8014 -21.80458,0.1882 -1.5001,-1.0507 -5.16736,-1.7603 -8.2727,-1.6007 -5.31866,0.2734 -6.10587,0.912 -16.92476,13.7304 -15.21147,18.0228 -22.62359,21.2758 -30.89395,13.5586 -1.85413,-1.7302 -3.17083,-2.1642 -3.74536,-1.2345 -0.48731,0.7884 -3.20707,1.4336 -6.04389,1.4336 -6.09216,0 -8.03018,-2.041 -14.77022,-15.5546 -2.49962,-5.0116 -4.65776,-9.3169 -4.79584,-9.5672 -0.13808,-0.2503 -1.53065,-0.049 -3.09458,0.4474 -3.5567,1.1289 -6.01075,6.9473 -3.96822,9.4084 0.93274,1.1238 1.34871,9.236 1.1711,22.8378 -0.27898,21.3634 1.37361,32.6708 6.09486,41.7024 3.37579,6.4577 13.21624,14.0707 19.68286,15.2275 7.57152,1.3544 18.32862,10.5216 18.32862,15.6196 0,2.011 0.75,3.9782 1.66667,4.3715 3.69861,1.5868 11.46261,-0.9568 19.66667,-6.443 z m 3.07233,-113.1929 9.07235,-10.0819 -0.93971,-8.3875 c -0.51684,-4.6132 -1.8994,-9.8692 -3.07235,-11.68 -1.82852,-2.823 -2.07136,-7.5525 -1.70296,-33.16661 0.23632,-16.43074 0.92998,-31.18998 1.54146,-32.7983 0.83266,-2.19008 0.50868,-3.30088 -1.29052,-4.42449 -1.32127,-0.82515 -3.44643,-4.23428 -4.7226,-7.57587 -1.27616,-3.34157 -2.79548,-6.0756 -3.37626,-6.0756 -2.33605,0 -25.07117,6.47799 -27.73097,7.90147 -1.56792,0.83913 -2.85077,2.1818 -2.85077,2.98369 0,0.80191 -2.38683,4.95471 -5.30406,9.22846 l -5.30405,7.77044 1.46343,9.72464 c 2.80374,18.63126 2.70186,23.95756 -0.8364,43.72467 -6.75862,37.758 -6.68707,36.4046 -2.41064,45.5964 l 3.76932,8.1018 3.72489,-6.8439 c 6.60591,-12.1372 14.59331,-10.4224 16.33363,3.5066 l 0.92757,7.4241 6.81816,-7.4231 c 3.74997,-4.0827 10.90069,-11.9599 15.89048,-17.505 z m -76.45116,3.1856 c 2.33008,-2.1767 6.29353,-4.3434 8.80767,-4.8151 2.51414,-0.4716 4.61165,-1.2408 4.66114,-1.7092 0.71756,-6.7908 1.42402,-11.1001 2.54407,-15.5182 1.20877,-4.7681 4.54039,-24.612 6.11827,-36.44182 0.32584,-2.44299 -0.29782,-7.54299 -1.38592,-11.33333 -1.80534,-6.28879 -2.9596,-20.98868 -1.90219,-24.22488 0.23961,-0.73334 -0.20249,-2.53334 -0.98245,-4 C 654.36847,947.2 652.95311,942.1 652.00319,937.33333 649.61053,925.32715 648.17775,924 637.60844,924 c -8.52976,0 -8.76743,0.10027 -17.84044,7.52315 -5.05755,4.13772 -11.93841,10.57389 -15.29083,14.30257 l -6.09529,6.77944 0.60785,23.36409 c 0.60563,23.27854 0.62972,23.43243 6.5816,42.03075 3.28556,10.2667 6.8261,20.0472 7.86787,21.7346 1.56384,2.5329 15.75363,10.779 18.75312,10.898 0.47245,0.019 2.76543,-1.7468 5.09552,-3.9234 z m 141.917,-9.0425 c 1.88312,-5.6834 4.34323,-15.2186 5.46691,-21.1894 1.12368,-5.9709 3.83222,-16.0198 6.01898,-22.33089 3.74143,-10.79796 3.97594,-12.68209 3.97594,-31.94494 0,-11.25862 -0.61118,-22.22342 -1.35816,-24.36623 -1.04795,-3.00615 -3.6738,-5.0722 -11.4962,-9.04536 -9.60952,-4.88089 -10.61088,-5.10969 -19.20848,-4.38891 -4.98875,0.41824 -11.06547,1.7746 -13.50382,3.01412 -5.95116,3.02526 -21.21022,17.69275 -19.50362,18.74748 0.9008,0.55672 1.03216,10.77774 0.39116,30.43679 -0.87187,26.73984 -0.73995,30.03394 1.36581,34.10604 1.28199,2.4791 2.63408,8.2845 3.00464,12.901 0.37057,4.6165 1.18689,8.3936 1.81405,8.3936 0.62716,0 2.19596,2.25 3.4862,5 1.99383,4.2496 3.06714,5.0604 7.1513,5.4023 3.76665,0.3154 6.0719,-0.5635 10.66458,-4.0658 7.96284,-6.0724 10.29724,-6.793 14.04707,-4.336 2.52977,1.6576 3.14547,3.2294 3.14547,8.0302 0,3.2831 0.25073,5.9693 0.55717,5.9693 0.30644,0 2.09789,-4.65 3.981,-10.3333 z"
       id="path223" />
  </g>
</svg>
